<svg version="1.1" xmlns="http://www.w3.org/2000/svg" viewBox="0 0 765.7412852628062 414.62471040024593" width="2297.2238557884184" height="1243.8741312007378">
  <!-- svg-source:excalidraw -->
  
  <defs>
    <style class="style-fonts">
      @font-face {
        font-family: "Virgil";
        src: url("https://excalidraw.com/Virgil.woff2");
      }
      @font-face {
        font-family: "Cascadia";
        src: url("https://excalidraw.com/Cascadia.woff2");
      }
    </style>
    
  </defs>
  <rect x="0" y="0" width="765.7412852628062" height="414.62471040024593" fill="#ffffff"></rect><g stroke-linecap="round" transform="translate(10 143.12385513049958) rotate(0 68.33984375 55.96484375)"><path d="M27.98 0 M27.98 0 C54.5 -0.43, 79.22 -2.08, 108.7 0 M27.98 0 C57.8 -0.07, 89.29 -1.33, 108.7 0 M108.7 0 C128.57 0.74, 135.57 9.29, 136.68 27.98 M108.7 0 C126.87 0.67, 137.23 8.81, 136.68 27.98 M136.68 27.98 C138.01 48.29, 137.82 69.85, 136.68 83.95 M136.68 27.98 C136.44 49.23, 137.52 68.7, 136.68 83.95 M136.68 83.95 C137.83 100.92, 128.8 112.53, 108.7 111.93 M136.68 83.95 C134.54 103.5, 127.76 111.37, 108.7 111.93 M108.7 111.93 C91.66 111.83, 71.6 112.98, 27.98 111.93 M108.7 111.93 C82.9 113.22, 57.65 113.11, 27.98 111.93 M27.98 111.93 C9.15 113.49, -0.91 101.29, 0 83.95 M27.98 111.93 C7.54 111.68, 1.36 101.4, 0 83.95 M0 83.95 C0.68 70.14, -0.09 58.37, 0 27.98 M0 83.95 C-0.47 62.49, 0.72 40.05, 0 27.98 M0 27.98 C-0.92 8.51, 8.09 0.46, 27.98 0 M0 27.98 C1.48 10, 7.44 1.02, 27.98 0" stroke="#1e1e1e" stroke-width="2" fill="none"></path></g><g transform="translate(30.01988983154297 186.58869888049958) rotate(0 48.31995391845703 12.5)"><text x="48.31995391845703" y="0" font-family="Virgil, Segoe UI Emoji" font-size="20px" fill="#1e1e1e" text-anchor="middle" style="white-space: pre;" direction="ltr" dominant-baseline="text-before-edge">workspace</text></g><g stroke-linecap="round" transform="translate(537.6090241344381 262.7571590643297) rotate(0 68.33984375 55.96484375)"><path d="M27.98 0 M27.98 0 C56.08 1.1, 81.02 -1.42, 108.7 0 M27.98 0 C54.83 -1.43, 80.75 0.06, 108.7 0 M108.7 0 C128.73 -1.1, 137.83 7.64, 136.68 27.98 M108.7 0 C129.02 0.69, 134.54 10.22, 136.68 27.98 M136.68 27.98 C135.4 47.34, 138.52 62.83, 136.68 83.95 M136.68 27.98 C136.85 48.11, 136.87 67.45, 136.68 83.95 M136.68 83.95 C138.04 103.76, 127.18 113.49, 108.7 111.93 M136.68 83.95 C135.63 101.1, 125.56 111.68, 108.7 111.93 M108.7 111.93 C80.68 110.9, 51.67 111.2, 27.98 111.93 M108.7 111.93 C83.62 111.96, 58.26 113.04, 27.98 111.93 M27.98 111.93 C10.62 111.48, -0.92 101.78, 0 83.95 M27.98 111.93 C7.9 112.46, 1.48 103.27, 0 83.95 M0 83.95 C-1.67 69.93, -1.73 59.85, 0 27.98 M0 83.95 C-0.52 65.32, -0.91 44.6, 0 27.98 M0 27.98 C-0.22 9.58, 7.47 -0.64, 27.98 0 M0 27.98 C1.2 8.6, 10.88 1.34, 27.98 0" stroke="#1e1e1e" stroke-width="2" fill="none"></path></g><g transform="translate(568.4788971813131 306.2220028143297) rotate(0 37.469970703125 12.5)"><text x="37.469970703125" y="0" font-family="Virgil, Segoe UI Emoji" font-size="20px" fill="#1e1e1e" text-anchor="middle" style="white-space: pre;" direction="ltr" dominant-baseline="text-before-edge">backend</text></g><g stroke-linecap="round" transform="translate(537.6090241344381 101.0970028143297) rotate(0 68.33984375 55.96484375)"><path d="M27.98 0 M27.98 0 C59.73 -0.01, 91.68 0.85, 108.7 0 M27.98 0 C45.84 -1.04, 62.89 -1.34, 108.7 0 M108.7 0 C128.8 0.6, 134.82 10.1, 136.68 27.98 M108.7 0 C127.76 -0.56, 135.2 8.01, 136.68 27.98 M136.68 27.98 C138.16 49.57, 137.64 70.42, 136.68 83.95 M136.68 27.98 C137.4 49.52, 136.63 70.68, 136.68 83.95 M136.68 83.95 C135.77 101.29, 125.79 111.71, 108.7 111.93 M136.68 83.95 C138.04 101.4, 126.02 113.04, 108.7 111.93 M108.7 111.93 C86.94 113.32, 66.63 111.55, 27.98 111.93 M108.7 111.93 C90.75 112.01, 71.06 111.83, 27.98 111.93 M27.98 111.93 C8.09 112.39, 1.29 103.18, 0 83.95 M27.98 111.93 C7.44 112.95, 0.79 100.97, 0 83.95 M0 83.95 C1.34 72.44, 1.57 59.56, 0 27.98 M0 83.95 C0.36 63.15, -0.45 41.78, 0 27.98 M0 27.98 C1.04 8.69, 10.68 1.17, 27.98 0 M0 27.98 C1.64 8.25, 10.92 0.55, 27.98 0" stroke="#1e1e1e" stroke-width="2" fill="none"></path></g><g transform="translate(568.4788971813131 144.5618465643297) rotate(0 37.469970703125 12.5)"><text x="37.469970703125" y="0" font-family="Virgil, Segoe UI Emoji" font-size="20px" fill="#1e1e1e" text-anchor="middle" style="white-space: pre;" direction="ltr" dominant-baseline="text-before-edge">backend</text></g><g transform="translate(569.0089035900045 65.5852840643297) rotate(0 36.939964294433594 12.5)"><text x="0" y="0" font-family="Virgil, Segoe UI Emoji" font-size="20px" fill="#1e1e1e" text-anchor="start" style="white-space: pre;" direction="ltr" dominant-baseline="text-before-edge">host_2</text></g><g transform="translate(569.3189011485982 228.7259090643297) rotate(0 36.629966735839844 12.5)"><text x="0" y="0" font-family="Virgil, Segoe UI Emoji" font-size="20px" fill="#1e1e1e" text-anchor="start" style="white-space: pre;" direction="ltr" dominant-baseline="text-before-edge">host_3</text></g><g stroke-linecap="round"><g transform="translate(551.4261216051976 326.12343931754003) rotate(0 -0.18404141686767161 29.158179934824602)" fill-rule="evenodd"><path d="M1.79 -0.81 L-25.25 14.07 L-27.31 42.02 L-1.47 58.8 L24.17 42.81 L24.65 14.09 L0.11 0.48" stroke="none" stroke-width="0" fill="#40c057" fill-rule="evenodd"></path><path d="M-1.1 1.16 C-8.41 5.55, -12.94 6.16, -25.35 15.38 M0.78 0.99 C-7.67 4.46, -14.3 8.34, -26.07 15.77 M-24.96 14.85 C-24.36 22.9, -27.23 31.05, -26.34 44.84 M-26.41 15.5 C-26.42 22.21, -25.54 30.12, -26.26 42.96 M-26.57 42.73 C-20.43 46.03, -12.71 52.34, 0.71 57.43 M-27.03 42.91 C-16.88 49.6, -7.89 55.03, -0.33 59.8 M0.38 57.21 C5.05 56.54, 10.51 53.26, 26.66 43.8 M-0.21 59.92 C6.23 54.64, 13.36 50.47, 26.1 42.11 M23.93 42.73 C24.54 31.75, 26.87 25.29, 25.27 14.76 M26.33 42.94 C26.5 35.13, 24.72 26.54, 25.12 14.38 M25.03 13.93 C20.55 11.07, 11.39 9.01, 0.19 -1.61 M25.6 14.04 C16.88 9.2, 8.22 5.35, -0.39 0.74 M0 0 C0 0, 0 0, 0 0 M0 0 C0 0, 0 0, 0 0" stroke="#000000" stroke-width="1" fill="none"></path></g></g><mask></mask><g stroke-linecap="round"><g transform="translate(542.8304474211494 349.1920982297188) rotate(0 8.120064859245588 5.512922308435918)" fill-rule="evenodd"><path d="M-0.26 0.18 L1.3 20.08 L-2.61 18.1 L-5.63 18.59 L-4.02 11.21 L-4.89 -7.22 L-3.03 -7.35 L2.41 -6.17 L14.1 12.08 L17.32 -7.4 L16.91 -9.54 L21.1 -5.68 L20.74 18.49 L16.92 20.57 L12.59 16.85 L-0.22 0.25" stroke="none" stroke-width="0" fill="#ffff" fill-rule="evenodd"></path><path d="M0.69 -1.01 C0.72 0.61, 1.34 5.81, 1.01 9.1 C0.67 12.39, -0.43 17.33, -1.32 18.74 C-2.21 20.15, -3.52 20.08, -4.32 17.54 C-5.13 15.01, -6.35 7.33, -6.13 3.53 C-5.92 -0.26, -4.17 -3.6, -3.04 -5.22 C-1.9 -6.84, -1.25 -7.49, 0.69 -6.19 C2.63 -4.9, 6.1 -0.5, 8.61 2.55 C11.13 5.59, 14.44 13.37, 15.8 12.09 C17.15 10.81, 15.75 -2.16, 16.72 -5.16 C17.68 -8.15, 20.8 -7.67, 21.6 -5.9 C22.4 -4.13, 21.78 1.72, 21.5 5.46 C21.23 9.21, 21.32 14.46, 19.96 16.55 C18.6 18.63, 15.51 19.35, 13.36 17.97 C11.2 16.59, 9.36 11.17, 7.01 8.27 C4.67 5.37, 0.53 1.86, -0.7 0.58 M-0.4 1.07 C-0.53 2.38, 0.28 4.57, 0.52 7.17 C0.75 9.76, 1.74 14.75, 0.99 16.64 C0.24 18.53, -3.07 20.67, -3.96 18.49 C-4.85 16.31, -4.21 7.59, -4.35 3.56 C-4.49 -0.46, -5.7 -3.84, -4.79 -5.64 C-3.88 -7.44, -0.98 -8.57, 1.1 -7.25 C3.19 -5.92, 5.54 -0.74, 7.72 2.33 C9.9 5.4, 12.52 12.43, 14.15 11.18 C15.79 9.92, 16.16 -1.94, 17.53 -5.18 C18.89 -8.41, 21.93 -9.99, 22.35 -8.21 C22.76 -6.42, 20.44 1, 20.04 5.53 C19.63 10.06, 20.6 16.94, 19.9 18.97 C19.2 21, 17.85 19.64, 15.82 17.71 C13.79 15.78, 10.36 10.59, 7.71 7.39 C5.07 4.18, 1.55 -0.56, -0.03 -1.52" stroke="#000000" stroke-width="1" fill="none"></path></g></g><mask></mask><g stroke-linecap="round"><g transform="translate(551.835689760382 167.33876584940845) rotate(0 -0.27890494525343 29.276756604890124)" fill-rule="evenodd"><path d="M-1.18 -1.64 L-27.71 14.76 L-27.44 44.09 L-0.71 59.16 L25.6 42.85 L24.28 15.24 L1.69 -0.33" stroke="none" stroke-width="0" fill="#40c057" fill-rule="evenodd"></path><path d="M0.6 -1.86 C-8.7 5.92, -19.3 9.65, -27.27 16.59 M0.21 0.2 C-10.42 6.86, -20.82 12.79, -25.44 15.6 M-27.43 13.46 C-26.12 24.54, -26.94 30.54, -25.15 43.09 M-25.37 15.92 C-26.3 24.28, -26.7 35.31, -25.48 43.43 M-25.66 44.94 C-18.94 46.09, -11.97 52.33, -1.29 57.26 M-26.01 44.23 C-20.63 47.75, -15.1 49.87, 0.01 59.19 M-0.51 60.41 C6.6 56.9, 9.75 53.4, 25.97 41.7 M0.64 58.98 C10.55 52.4, 20.09 46.23, 25.15 41.59 M26.87 44.3 C25.41 34.11, 24.89 23.5, 24.7 15.67 M24.6 41.47 C24.86 32.63, 24.67 21.99, 26 13.76 M23.74 15.67 C18.03 8.28, 10.8 5.92, 0.33 0.21 M24.84 14.43 C17.37 10.4, 9.31 5.8, -0.33 0.26 M0 0 C0 0, 0 0, 0 0 M0 0 C0 0, 0 0, 0 0" stroke="#000000" stroke-width="1" fill="none"></path></g></g><mask></mask><g stroke-linecap="round"><g transform="translate(543.2400155763338 190.4074247615872) rotate(0 8.5235201075796 5.82824926069452)" fill-rule="evenodd"><path d="M-0.27 -1.39 L-1.29 19.03 L-1.05 19.05 L-5.46 17.01 L-6.55 12.12 L-2.69 -5.82 L-3.43 -6.92 L1.81 -8.17 L13.93 9.71 L16.95 -5.06 L18.94 -6.9 L19.87 -5.12 L18.81 16.09 L17.61 19.34 L12.44 17.46 L1.04 -0.64" stroke="none" stroke-width="0" fill="#ffff" fill-rule="evenodd"></path><path d="M-1.11 0.47 C-1.2 1.82, 0.33 5.6, 0.35 8.45 C0.38 11.31, -0.32 15.83, -0.98 17.59 C-1.63 19.35, -2.8 21.15, -3.6 19.02 C-4.4 16.88, -5.78 8.97, -5.8 4.78 C-5.82 0.58, -4.89 -4.39, -3.72 -6.16 C-2.56 -7.93, -0.84 -7.4, 1.19 -5.86 C3.22 -4.31, 5.89 0.17, 8.45 3.13 C11.01 6.09, 15.21 13.26, 16.55 11.89 C17.9 10.53, 15.91 -1.83, 16.53 -5.04 C17.14 -8.26, 19.54 -8.95, 20.23 -7.38 C20.92 -5.81, 20.51 0.38, 20.67 4.4 C20.84 8.41, 22.4 14.33, 21.22 16.71 C20.04 19.09, 16.14 19.89, 13.6 18.68 C11.05 17.47, 8.26 12.56, 5.96 9.47 C3.67 6.37, 0.69 1.51, -0.16 0.11 M0.5 -0.33 C0.2 1.16, -0.65 6.69, -0.48 9.84 C-0.31 12.98, 1.91 17.34, 1.51 18.54 C1.12 19.75, -1.97 19.26, -2.86 17.08 C-3.75 14.9, -3.95 9.48, -3.84 5.46 C-3.72 1.43, -3.13 -5.04, -2.18 -7.07 C-1.23 -9.1, 0.25 -8.45, 1.86 -6.73 C3.47 -5.02, 5.22 0.28, 7.47 3.22 C9.71 6.15, 13.68 12.25, 15.31 10.88 C16.94 9.51, 16.41 -2.06, 17.24 -5 C18.07 -7.95, 19.4 -8.29, 20.26 -6.81 C21.13 -5.32, 22.17 0.18, 22.43 3.9 C22.69 7.63, 23.47 13.07, 21.82 15.55 C20.17 18.04, 15.14 19.85, 12.53 18.79 C9.91 17.74, 8.07 12.11, 6.12 9.21 C4.16 6.32, 1.79 3.16, 0.79 1.42" stroke="#000000" stroke-width="1" fill="none"></path></g></g><mask></mask><g transform="translate(552.9725661300939 10) rotate(0 66.162109375 11.5)"><text x="0" y="0" font-family="Helvetica, Segoe UI Emoji" font-size="20px" fill="#1e1e1e" text-anchor="start" style="white-space: pre;" direction="ltr" dominant-baseline="text-before-edge">backend group</text></g><g stroke-linecap="round" transform="translate(484.3184649745084 37.58956886291094) rotate(0 135.71141014414889 183.5175707686675)"><path d="M32 0 M32 0 C96.49 1.08, 159.56 -0.29, 239.42 0 M239.42 0 C262.32 -0.91, 270.12 9.11, 271.42 32 M271.42 32 C271.88 120.34, 272.32 207.95, 271.42 335.04 M271.42 335.04 C271.16 356.55, 262.26 368.84, 239.42 367.04 M239.42 367.04 C180.68 367.18, 120.2 365.22, 32 367.04 M32 367.04 C9.85 365.79, 0.46 357.65, 0 335.04 M0 335.04 C2.31 234.26, 0.49 134.48, 0 32 M0 32 C0.32 11.59, 10.89 1.16, 32 0" stroke="#1e1e1e" stroke-width="2.5" fill="none" stroke-dasharray="8 10"></path></g><g stroke-linecap="round" transform="translate(21.58804044034457 291.4709665541427) rotate(0 151.57317408637016 51.269151163973675)"><path d="M-0.64 1.47 L303.25 1.77 L302.04 100.81 L1.97 104.05" stroke="none" stroke-width="0" fill="#e9ecef"></path><path d="M0.05 -0.7 C65.06 0.9, 131.75 2.08, 302.84 0.23 M0.67 -0.3 C105.53 -0.83, 211.3 0.28, 303.45 -0.29 M302.72 1.6 C302.42 32.97, 304.5 70.39, 303.71 101.09 M303.34 -0.96 C303.25 22.85, 304.15 44.72, 302.32 101.61 M302.39 101.97 C207.62 104.65, 112.78 104.91, -1.43 101.37 M302.57 102.02 C209.62 101.1, 115.27 101.71, 0.52 102.9 M1.18 104.19 C2.3 67.57, -0.47 33.17, 1.74 -1.34 M0.53 102.5 C-0.92 64.04, -0.63 27.84, 0.51 -0.32" stroke="#1e1e1e" stroke-width="2" fill="none"></path></g><g transform="translate(39.470795339298434 304.21210993260183) rotate(0 91.1474609375 11.5)"><text x="0" y="0" font-family="Helvetica, Segoe UI Emoji" font-size="20px" fill="#1e1e1e" text-anchor="start" style="white-space: pre;" direction="ltr" dominant-baseline="text-before-edge">- name: Gather facts</text></g><g transform="translate(39.33448086650981 327.0672758052642) rotate(0 136.73828125 11.5)"><text x="0" y="0" font-family="Helvetica, Segoe UI Emoji" font-size="20px" fill="#1e1e1e" text-anchor="start" style="white-space: pre;" direction="ltr" dominant-baseline="text-before-edge">  hosts: env_GROUP_backend</text></g><g transform="translate(39.470795339298434 350.06727580526376) rotate(0 83.37890625 11.5)"><text x="0" y="0" font-family="Helvetica, Segoe UI Emoji" font-size="20px" fill="#1e1e1e" text-anchor="start" style="white-space: pre;" direction="ltr" dominant-baseline="text-before-edge">  gather_facts: true</text></g><g transform="translate(23.671095977645336 261.83534820444766) rotate(0 58.359375 11.5)"><text x="0" y="0" font-family="Helvetica, Segoe UI Emoji" font-size="20px" fill="#1e1e1e" text-anchor="start" style="white-space: pre;" direction="ltr" dominant-baseline="text-before-edge">playbook.yml</text></g><g stroke-linecap="round"><g transform="translate(211.41020362574034 166.35983949785873) rotate(0 161.77350946207565 -12.760375858044085)"><path d="M1.29 -0.86 C110.6 -7.67, 222.43 -15.22, 323.65 -24.86 M-0.22 -0.39 C83.26 -8.18, 166.54 -14.25, 323.77 -25.13" stroke="#1e1e1e" stroke-width="2" fill="none"></path></g><g transform="translate(211.41020362574034 166.35983949785873) rotate(0 161.77350946207565 -12.760375858044085)"><path d="M-0.24 -1.4 L14.17 -9.88 L15.34 6.05 L0.59 -0.24" stroke="none" stroke-width="0" fill="#1e1e1e" fill-rule="evenodd"></path><path d="M2.68 -1.8 C5.56 -2.98, 11.12 -4.39, 14.75 -8.03 M1.05 -1.28 C4.45 -2.75, 7.64 -4.22, 14.88 -8.32 M14.73 -7.48 C15.61 -5.61, 14.17 -1.16, 15.07 5.16 M14.19 -8.49 C15.14 -4.34, 14.57 -1.58, 14.81 4.8 M14.36 4.32 C10.09 1.86, 7.39 0.77, 2.6 -0.69 M14.8 5.13 C10.44 3.04, 4.72 0.38, 1.93 -0.54 M1.29 -0.86 C1.29 -0.86, 1.29 -0.86, 1.29 -0.86 M1.29 -0.86 C1.29 -0.86, 1.29 -0.86, 1.29 -0.86" stroke="#1e1e1e" stroke-width="2" fill="none"></path></g><g transform="translate(211.41020362574034 166.35983949785873) rotate(0 161.77350946207565 -12.760375858044085)"><path d="M322.24 -25.66 L310.41 -19.61 L309.82 -28.98 L323.07 -24.51" stroke="none" stroke-width="0" fill="#1e1e1e" fill-rule="evenodd"></path><path d="M325.16 -26.07 C319.08 -22.33, 315.65 -18.75, 310.99 -17.76 M323.53 -25.55 C320.17 -23.04, 316.58 -20.77, 311.12 -18.05 M310.97 -17.21 C311.17 -22.02, 309.26 -24.25, 309.55 -29.87 M310.43 -18.22 C310.65 -21.21, 309.59 -25.58, 309.29 -30.22 M308.83 -30.71 C312.77 -30.27, 318.21 -28.24, 325.09 -24.95 M309.28 -29.89 C315.85 -27.92, 321.18 -26.35, 324.41 -24.81 M323.77 -25.13 C323.77 -25.13, 323.77 -25.13, 323.77 -25.13 M323.77 -25.13 C323.77 -25.13, 323.77 -25.13, 323.77 -25.13" stroke="#1e1e1e" stroke-width="2" fill="none"></path></g></g><mask></mask><g stroke-linecap="round"><g transform="translate(209.71821386494094 195.64641925577826) rotate(0 162.67773157043024 51.26432175119612)"><path d="M0.57 -0.84 C115.72 34, 231.9 70.9, 325.9 103.37 M-0.54 -0.36 C126.39 40.46, 252.58 80.25, 325.43 103.3" stroke="#1e1e1e" stroke-width="2" fill="none"></path></g><g transform="translate(209.71821386494094 195.64641925577826) rotate(0 162.67773157043024 51.26432175119612)"><path d="M-0.83 0.34 L14.42 -2.74 L11.64 9.8 L-0.28 0.62" stroke="none" stroke-width="0" fill="#1e1e1e" fill-rule="evenodd"></path><path d="M1.22 -1.78 C5.62 -2.78, 11.2 -3.41, 16.34 -2.74 M-0.04 -1.25 C6.71 -1.8, 12.52 -2.9, 15.82 -2.81 M14.5 -3.78 C14.07 0.61, 12.16 4.39, 12.61 8.85 M15.22 -2.43 C14.64 0.62, 13.5 5.72, 11.46 8.74 M12.55 7.99 C7.51 6.25, 3.23 2.19, -0.02 -0.03 M12.04 8.56 C7.76 4.53, 2.51 1.88, 0.56 -0.68 M0.57 -0.84 C0.57 -0.84, 0.57 -0.84, 0.57 -0.84 M0.57 -0.84 C0.57 -0.84, 0.57 -0.84, 0.57 -0.84" stroke="#1e1e1e" stroke-width="2" fill="none"></path></g><g transform="translate(209.71821386494094 195.64641925577826) rotate(0 162.67773157043024 51.26432175119612)"><path d="M324.04 104.48 L309.54 105.31 L314.38 93.67 L324.59 104.76" stroke="none" stroke-width="0" fill="#1e1e1e" fill-rule="evenodd"></path><path d="M326.08 102.35 C319.88 103.01, 314.85 103.78, 311.46 105.32 M324.82 102.89 C320.02 103.77, 314.3 104.19, 310.94 105.24 M309.62 104.27 C311.27 101.52, 311.63 98.11, 315.35 92.71 M310.34 105.63 C312.28 100.7, 313.67 97.78, 314.2 92.61 M315.3 91.86 C318.04 96.98, 321.36 99.89, 324.84 104.11 M314.78 92.43 C319.15 96.58, 322.66 101.96, 325.43 103.46 M325.43 103.3 C325.43 103.3, 325.43 103.3, 325.43 103.3 M325.43 103.3 C325.43 103.3, 325.43 103.3, 325.43 103.3" stroke="#1e1e1e" stroke-width="2" fill="none"></path></g></g><mask></mask><g stroke-linecap="round" transform="translate(135.55921077098833 108.77105288121675) rotate(0 36.38861645172068 49.59037646758975)"><path d="M-0.01 0.87 L70.95 1.77 L73.47 100.87 L0.11 98.92" stroke="none" stroke-width="0" fill="#feeb9e"></path><path d="M-1.93 1.38 C23.18 2.44, 48.92 0.03, 73.12 -0.71 M0.63 0.61 C26.99 -0.57, 52.25 -0.12, 72.29 -0.32 M70.83 1.17 C74.44 30.45, 75.12 58.98, 71.7 97.54 M73.55 0.36 C73.52 24.11, 73.01 48.31, 73.52 98.84 M74.12 98.61 C51.88 97.04, 33.88 97.9, -0.48 99.43 M71.94 99.35 C45.42 99.37, 20.43 98.97, -0.95 99.22 M-0.38 97.71 C0.44 77.19, 1.18 55.16, -0.14 -0.62 M0.24 99.72 C-0.17 75.8, -0.76 51.35, 0.54 -0.36" stroke="#000000" stroke-width="4" fill="none"></path></g><g stroke-linecap="round"><g transform="translate(184.66925455530009 108.70480204453224) rotate(0 11.56149502186014 11.745725894141515)" fill-rule="evenodd"><path d="M-1.83 1.77 L0.92 25.42 L24.15 23.16 L0.71 -1.84" stroke="none" stroke-width="0" fill="#e6c45f" fill-rule="evenodd"></path><path d="M-0.44 1.74 C1.5 4.19, 0.2 9, 1.54 23.71 M0.38 -0.56 C-0.75 7.01, -0.2 13.94, 0.22 24.47 M1.16 24.53 C8.99 23.17, 13.45 21.76, 22.89 24.81 M0.28 23.76 C4.87 23.72, 11.18 23.17, 23.81 23.77 M23.34 21.62 C19.32 16.52, 11.28 11.79, 1.29 -1.31 M23.22 24 C19.07 17.89, 11.47 12, -0.69 0.65 M0 0 C0 0, 0 0, 0 0 M0 0 C0 0, 0 0, 0 0" stroke="#000" stroke-width="4" fill="none"></path></g></g><mask></mask><g stroke-linecap="round"><g transform="translate(186.06256934403837 105.26963037468568) rotate(179.75453245381487 13.048962749621978 14.161396230604282)" fill-rule="evenodd"><path d="M0 0 L-0.2 29.84 L27.85 27.58 L-1.76 -1.52" stroke="none" stroke-width="0" fill="#fff" fill-rule="evenodd"></path><path d="M0 0 C-0.07 11, -0.15 22.01, -0.2 29.84 M0 0 C-0.07 10.77, -0.15 21.54, -0.2 29.84 M-0.2 29.84 C9.86 29.03, 19.92 28.22, 27.85 27.58 M-0.2 29.84 C9.23 29.08, 18.67 28.32, 27.85 27.58 M27.85 27.58 C19.81 19.67, 11.77 11.77, -1.76 -1.52 M27.85 27.58 C18.47 18.36, 9.09 9.14, -1.76 -1.52 M-1.76 -1.52 C-1.36 -1.17, -0.96 -0.83, 0 0 M-1.76 -1.52 C-1.13 -0.98, -0.51 -0.44, 0 0" stroke="transparent" stroke-width="4" fill="none"></path></g></g><mask></mask><g transform="translate(145.057469513122 151.27537245755116) rotate(0 26.980674743652344 12.210224849273345)"><text x="0" y="0" font-family="Virgil, Segoe UI Emoji" font-size="19.536359758837406px" fill="#000" text-anchor="start" style="white-space: pre;" direction="ltr" dominant-baseline="text-before-edge">facts</text></g><g transform="translate(363.2134083849411 128.83502103552405) rotate(357.36790773092616 15.5615234375 11.5)"><text x="0" y="0" font-family="Helvetica, Segoe UI Emoji" font-size="20px" fill="#1e1e1e" text-anchor="start" style="white-space: pre;" direction="ltr" dominant-baseline="text-before-edge">ssh</text></g><g transform="translate(363.5112218909393 219.61347389971775) rotate(18.30094309983753 15.5615234375 11.5)"><text x="0" y="0" font-family="Helvetica, Segoe UI Emoji" font-size="20px" fill="#1e1e1e" text-anchor="start" style="white-space: pre;" direction="ltr" dominant-baseline="text-before-edge">ssh</text></g></svg>