<svg version="1.1" xmlns="http://www.w3.org/2000/svg" viewBox="0 0 560.4591467902311 339.68732844540335" width="1681.3774403706934" height="1019.06198533621">
  <!-- svg-source:excalidraw -->
  
  <defs>
    <style class="style-fonts">
      @font-face {
        font-family: "Virgil";
        src: url("https://excalidraw.com/Virgil.woff2");
      }
      @font-face {
        font-family: "Cascadia";
        src: url("https://excalidraw.com/Cascadia.woff2");
      }
    </style>
    
  </defs>
  <rect x="0" y="0" width="560.4591467902311" height="339.68732844540335" fill="#ffffff"></rect><g stroke-linecap="round" transform="translate(152.1222990388702 149.6796875) rotate(0 68.33984375 55.96484375)"><path d="M27.98 0 M27.98 0 C43.66 -1.67, 60 0.45, 108.7 0 M27.98 0 C44.34 0.52, 61.99 -0.17, 108.7 0 M108.7 0 C128.27 -1.04, 134.86 8.98, 136.68 27.98 M108.7 0 C128.56 -0.44, 134.6 7.73, 136.68 27.98 M136.68 27.98 C135.01 44.46, 134.64 59.36, 136.68 83.95 M136.68 27.98 C136.93 40.16, 136.62 52.31, 136.68 83.95 M136.68 83.95 C136.12 102.88, 126.81 113.64, 108.7 111.93 M136.68 83.95 C138.38 100.67, 128.37 113.67, 108.7 111.93 M108.7 111.93 C87.99 111.75, 66.07 110.37, 27.98 111.93 M108.7 111.93 C87.25 111.55, 65.86 112.7, 27.98 111.93 M27.98 111.93 C7.4 112.31, 0.6 103.33, 0 83.95 M27.98 111.93 C9.44 111.61, 0.47 101.08, 0 83.95 M0 83.95 C-0.15 65.95, -1.29 45.21, 0 27.98 M0 83.95 C0.05 68.1, -0.37 52.15, 0 27.98 M0 27.98 C0.17 7.38, 10.8 -1.62, 27.98 0 M0 27.98 C0.62 10.59, 8.66 -0.35, 27.98 0" stroke="#1e1e1e" stroke-width="2" fill="none"></path></g><g transform="translate(159.42218764971005 193.14453125) rotate(0 61.039955139160156 12.5)"><text x="61.039955139160156" y="0" font-family="Virgil, Segoe UI Emoji" font-size="20px" fill="#1e1e1e" text-anchor="middle" style="white-space: pre;" direction="ltr" dominant-baseline="text-before-edge">loadbalancer</text></g><g stroke-linecap="round" transform="translate(413.7794592902311 207.171875) rotate(0 68.33984375 55.96484375)"><path d="M27.98 0 M27.98 0 C49.14 0.33, 72.38 0.15, 108.7 0 M27.98 0 C56.66 -0.35, 87.98 -0.85, 108.7 0 M108.7 0 C126.47 1.04, 135.16 9.52, 136.68 27.98 M108.7 0 C128.23 1.17, 138.76 9.15, 136.68 27.98 M136.68 27.98 C138.2 43.76, 137.04 62.1, 136.68 83.95 M136.68 27.98 C137.75 46.69, 136.55 67.08, 136.68 83.95 M136.68 83.95 C134.86 104.22, 126.98 112.35, 108.7 111.93 M136.68 83.95 C134.69 100.91, 129.48 111.88, 108.7 111.93 M108.7 111.93 C85.65 110.96, 63.19 109.4, 27.98 111.93 M108.7 111.93 C89.6 111.91, 70.2 113.1, 27.98 111.93 M27.98 111.93 C7.62 112.16, -0.19 101.46, 0 83.95 M27.98 111.93 C8.27 111.88, -2.26 103.79, 0 83.95 M0 83.95 C-1.48 71.69, 1.59 55.59, 0 27.98 M0 83.95 C-1.44 61.23, -0.37 39.22, 0 27.98 M0 27.98 C-0.81 11.04, 9.17 1.82, 27.98 0 M0 27.98 C2.17 9.81, 8.93 -2.05, 27.98 0" stroke="#1e1e1e" stroke-width="2" fill="none"></path></g><g transform="translate(444.6493323371061 250.63671875) rotate(0 37.469970703125 12.5)"><text x="37.469970703125" y="0" font-family="Virgil, Segoe UI Emoji" font-size="20px" fill="#1e1e1e" text-anchor="middle" style="white-space: pre;" direction="ltr" dominant-baseline="text-before-edge">backend</text></g><g stroke-linecap="round" transform="translate(413.7794592902311 45.51171875) rotate(0 68.33984375 55.96484375)"><path d="M27.98 0 M27.98 0 C46.13 -1.79, 63.47 -0.28, 108.7 0 M27.98 0 C56.75 1.1, 84.04 0.47, 108.7 0 M108.7 0 C127.16 -1.15, 135.76 9.28, 136.68 27.98 M108.7 0 C125.09 1.19, 135.33 7.28, 136.68 27.98 M136.68 27.98 C137.22 43.67, 138.08 64.01, 136.68 83.95 M136.68 27.98 C136.35 46.64, 135.77 66.64, 136.68 83.95 M136.68 83.95 C136.52 104.42, 129.24 112.35, 108.7 111.93 M136.68 83.95 C136.28 100.55, 125.57 111.7, 108.7 111.93 M108.7 111.93 C87.69 112.74, 67.64 113.5, 27.98 111.93 M108.7 111.93 C77.15 112.57, 47.51 111.7, 27.98 111.93 M27.98 111.93 C7.52 110.84, -0.76 100.63, 0 83.95 M27.98 111.93 C7.14 113.52, 1.73 102.34, 0 83.95 M0 83.95 C0.8 73.98, 0.69 58.79, 0 27.98 M0 83.95 C0.59 62.5, -0.07 42.16, 0 27.98 M0 27.98 C1.67 9.55, 9.63 -0.85, 27.98 0 M0 27.98 C1.89 9.83, 9.45 -1.35, 27.98 0" stroke="#1e1e1e" stroke-width="2" fill="none"></path></g><g transform="translate(444.6493323371061 88.9765625) rotate(0 37.469970703125 12.5)"><text x="37.469970703125" y="0" font-family="Virgil, Segoe UI Emoji" font-size="20px" fill="#1e1e1e" text-anchor="middle" style="white-space: pre;" direction="ltr" dominant-baseline="text-before-edge">backend</text></g><g transform="translate(188.5051115388702 117.2421875) rotate(0 32.52996826171875 12.5)"><text x="0" y="0" font-family="Virgil, Segoe UI Emoji" font-size="20px" fill="#1e1e1e" text-anchor="start" style="white-space: pre;" direction="ltr" dominant-baseline="text-before-edge">host_1</text></g><g transform="translate(445.1793387457975 10) rotate(0 36.939964294433594 12.5)"><text x="0" y="0" font-family="Virgil, Segoe UI Emoji" font-size="20px" fill="#1e1e1e" text-anchor="start" style="white-space: pre;" direction="ltr" dominant-baseline="text-before-edge">host_2</text></g><g transform="translate(445.48933630439126 173.140625) rotate(0 36.629966735839844 12.5)"><text x="0" y="0" font-family="Virgil, Segoe UI Emoji" font-size="20px" fill="#1e1e1e" text-anchor="start" style="white-space: pre;" direction="ltr" dominant-baseline="text-before-edge">host_3</text></g><g stroke-linecap="round"><g transform="translate(11.47776778887021 200.359375) rotate(0 68.75559526895177 -0.17384956330059254)"><path d="M-0.01 0.73 C22.62 0.46, 113.81 -1.04, 136.91 -1.08 M-1.48 0.07 C21.4 -0.1, 115.74 0.38, 138.99 0.14" stroke="#1e1e1e" stroke-width="2" fill="none"></path></g><g transform="translate(11.47776778887021 200.359375) rotate(0 68.75559526895177 -0.17384956330059254)"><path d="M139.4 1.6 L123.7 5.4 L125.34 -5.26 L140.5 1.18" stroke="none" stroke-width="0" fill="#1e1e1e" fill-rule="evenodd"></path><path d="M139.9 -1.36 C132.89 3.21, 129.46 4.12, 126.79 6.05 M138.37 0.58 C136.25 1.36, 132.23 2.58, 125.87 6.02 M125.16 6.74 C125.43 1.05, 125.4 -3.42, 126.21 -6.74 M125.08 6.14 C124.8 1.55, 125.76 -3.51, 125.41 -6.4 M124.2 -5.48 C127.99 -4.23, 134.3 -3.44, 140.17 0.2 M124.78 -6.9 C130.29 -3.21, 135.71 -1.64, 138.26 -0.2 M138.99 0.14 C138.99 0.14, 138.99 0.14, 138.99 0.14 M138.99 0.14 C138.99 0.14, 138.99 0.14, 138.99 0.14" stroke="#1e1e1e" stroke-width="2" fill="none"></path></g></g><mask></mask><g transform="translate(83.05589278887021 161.81640625) rotate(0 31.47998046875 12.5)"><text x="0" y="0" font-family="Virgil, Segoe UI Emoji" font-size="20px" fill="#1e1e1e" text-anchor="start" style="white-space: pre;" direction="ltr" dominant-baseline="text-before-edge">:8080</text></g><g stroke-linecap="round"><g transform="translate(289.8019865388702 196.6161434594086) rotate(0 61.578601712940895 -46.55177421577325)"><path d="M-0.14 0.97 C20.37 -14.35, 102.15 -76.66, 122.61 -92.25 M-1.67 0.44 C19.24 -15.22, 103.7 -78.82, 124.82 -94.08" stroke="#1e1e1e" stroke-width="2" fill="none"></path></g><g transform="translate(289.8019865388702 196.6161434594086) rotate(0 61.578601712940895 -46.55177421577325)"><path d="M126.56 -94.55 L117.33 -82.74 L108.31 -92.68 L126.48 -93.52" stroke="none" stroke-width="0" fill="#1e1e1e" fill-rule="evenodd"></path><path d="M126.04 -95.26 C123.59 -91.73, 121.29 -85.67, 117.02 -79.71 M124.12 -94.68 C122.04 -90.44, 120.98 -86.29, 117.17 -81.62 M118.66 -80.29 C114.69 -83.92, 114.79 -86.67, 109.59 -91.99 M117.72 -81.41 C116 -83.86, 112.78 -87.98, 109.85 -90.75 M108.85 -91.91 C113.98 -91.29, 119.04 -92, 126.11 -93.11 M109.45 -91.08 C115.65 -92.95, 121.16 -93.57, 125.27 -93.51 M124.82 -94.08 C124.82 -94.08, 124.82 -94.08, 124.82 -94.08 M124.82 -94.08 C124.82 -94.08, 124.82 -94.08, 124.82 -94.08" stroke="#1e1e1e" stroke-width="2" fill="none"></path></g></g><mask></mask><g stroke-linecap="round"><g transform="translate(291.1319628915005 200.49760873606897) rotate(0 60.04729209943207 24.392034532516277)"><path d="M-0.14 -1.18 C20.04 6.74, 101.48 40.3, 121.76 48.43 M-1.67 0.81 C18.25 8.86, 100.27 42.02, 120.63 49.97" stroke="#1e1e1e" stroke-width="2" fill="none"></path></g><g transform="translate(291.1319628915005 200.49760873606897) rotate(0 60.04729209943207 24.392034532516277)"><path d="M121.37 49.83 L104.78 50.89 L112.32 40.17 L122.06 49.54" stroke="none" stroke-width="0" fill="#1e1e1e" fill-rule="evenodd"></path><path d="M119.15 49.53 C115.24 49.58, 108.82 50.95, 106.59 51.09 M120.1 49.63 C116.67 50.45, 113.29 50.56, 106.18 51.23 M105.35 50.61 C106.28 45.19, 108.2 42.96, 110.7 39.18 M106.02 51.1 C106.09 48.57, 106.88 45.86, 109.8 39.4 M110.23 39.91 C114.32 43.83, 116.8 46.91, 120.03 50.6 M109.71 38.99 C114.01 43.29, 117.48 47.13, 120.85 50.3 M120.63 49.97 C120.63 49.97, 120.63 49.97, 120.63 49.97 M120.63 49.97 C120.63 49.97, 120.63 49.97, 120.63 49.97" stroke="#1e1e1e" stroke-width="2" fill="none"></path></g></g><mask></mask><g transform="translate(380.5910490388702 210.48828125) rotate(0 16.949989318847656 12.5)"><text x="0" y="0" font-family="Virgil, Segoe UI Emoji" font-size="20px" fill="#1e1e1e" text-anchor="start" style="white-space: pre;" direction="ltr" dominant-baseline="text-before-edge">:80</text></g><g transform="translate(379.91059097002255 63.65234375) rotate(0 16.949989318847656 12.5)"><text x="0" y="0" font-family="Virgil, Segoe UI Emoji" font-size="20px" fill="#1e1e1e" text-anchor="start" style="white-space: pre;" direction="ltr" dominant-baseline="text-before-edge">:80</text></g><g stroke-linecap="round"><g transform="translate(427.59655676099067 270.5381552532101) rotate(0 -0.2350662207594496 28.885506421084273)" fill-rule="evenodd"><path d="M1.08 -1.74 L-25.54 14.86 L-26.92 42.71 L1.66 58.44 L25.51 41.86 L24.27 15.55 L1.28 -0.48" stroke="none" stroke-width="0" fill="#40c057" fill-rule="evenodd"></path><path d="M0.18 0.23 C-8.28 5.96, -13.37 8.48, -24.31 15.96 M-0.04 0.58 C-8.06 5.12, -15.41 9.21, -26.01 14.73 M-27.9 13.09 C-27.8 22.37, -27.74 33.79, -26.76 45.53 M-25.32 14.75 C-26.44 25.78, -26.25 34.59, -26.25 44.45 M-25.91 43.34 C-18.77 46.07, -11.25 52.25, 0.82 57.59 M-25.18 43.69 C-20 45.99, -16.1 50.83, 0.95 59.15 M1.39 57.35 C6.32 55.05, 12.22 52.59, 25.44 43.3 M-0.06 58.57 C9.09 52.86, 18.16 47.3, 24.63 42.2 M24.8 43.47 C25.33 36.62, 25.29 28.73, 24.38 14.36 M24.68 42.65 C25.3 34.7, 26.61 26.29, 24.53 14.84 M27.43 12.58 C19.12 11.37, 14.35 6.15, 1.65 -1.38 M25.36 14.06 C19.79 10.1, 13.41 6.53, -0.66 -0.14 M0 0 C0 0, 0 0, 0 0 M0 0 C0 0, 0 0, 0 0" stroke="#000000" stroke-width="1" fill="none"></path></g></g><mask></mask><g stroke-linecap="round"><g transform="translate(419.0008825769422 293.606814165389) rotate(0 8.032927749779219 5.624885619195624)" fill-rule="evenodd"><path d="M-0.89 1.07 L-0.7 16.51 L-2.59 21.09 L-5.03 16.12 L-4.54 11.88 L-4.29 -6.14 L-3.51 -7.26 L1.34 -6.06 L14.26 9.25 L16.03 -6 L20.6 -7.98 L22.47 -8.17 L19.38 19.18 L19.47 19.27 L12.38 16.56 L-0.06 1.26" stroke="none" stroke-width="0" fill="#ffff" fill-rule="evenodd"></path><path d="M0.14 -0.93 C0.18 0.52, 1.26 5.45, 1.24 8.83 C1.23 12.21, 0.94 17.84, 0.07 19.36 C-0.8 20.88, -2.95 20.43, -3.97 17.97 C-5 15.51, -6.07 8.57, -6.08 4.62 C-6.08 0.68, -5.25 -3.88, -4.02 -5.71 C-2.78 -7.53, -0.93 -7.62, 1.33 -6.33 C3.58 -5.04, 7.09 -0.84, 9.52 2.02 C11.94 4.88, 14.67 12.2, 15.87 10.84 C17.08 9.49, 15.94 -3.01, 16.74 -6.1 C17.54 -9.18, 20.05 -9.27, 20.67 -7.66 C21.29 -6.06, 20.62 -0.47, 20.45 3.53 C20.27 7.54, 20.53 14.02, 19.61 16.38 C18.69 18.74, 16.97 18.85, 14.94 17.72 C12.91 16.58, 9.83 12.64, 7.43 9.58 C5.02 6.52, 1.59 1.02, 0.51 -0.63 M-1.25 1.19 C-1.35 2.85, 0.76 7.68, 0.88 10.41 C0.99 13.15, 0.17 16.13, -0.55 17.59 C-1.27 19.04, -2.81 21.21, -3.43 19.15 C-4.05 17.09, -4.4 9.48, -4.26 5.23 C-4.13 0.97, -3.69 -4.27, -2.63 -6.38 C-1.57 -8.5, 0.12 -8.78, 2.08 -7.46 C4.03 -6.14, 7.06 -1.87, 9.1 1.53 C11.13 4.93, 12.86 14.29, 14.28 12.93 C15.69 11.58, 16.45 -3.24, 17.56 -6.61 C18.67 -9.97, 20.17 -9.38, 20.93 -7.24 C21.68 -5.1, 22.34 1.92, 22.08 6.25 C21.83 10.58, 20.62 16.87, 19.37 18.71 C18.12 20.56, 17.02 18.88, 14.57 17.32 C12.13 15.77, 6.81 12.22, 4.68 9.38 C2.56 6.55, 2.55 1.81, 1.81 0.29" stroke="#000000" stroke-width="1" fill="none"></path></g></g><mask></mask><g stroke-linecap="round"><g transform="translate(171.38080275962955 218.9933998289157) rotate(0 -0.3430163306215377 29.781674464921224)" fill-rule="evenodd"><path d="M1.18 -1.25 L-25.7 13.78 L-27.39 44.98 L1.95 59.08 L27.41 43.15 L27.45 15.7 L-0.1 0.74" stroke="none" stroke-width="0" fill="#40c057" fill-rule="evenodd"></path><path d="M-0.48 -0.99 C-9.2 3.47, -19.33 9.12, -25.41 14.98 M0.32 0.2 C-7.3 3.29, -12.06 7.38, -26.16 14.94 M-27.09 16.3 C-24.91 27.36, -24.49 35.21, -25.41 41.66 M-25.94 15.75 C-25.52 22.65, -25.66 30.18, -25.78 44.25 M-27.52 45.39 C-22.29 45.53, -16.6 48.98, 0.46 60.55 M-25.98 42.93 C-19.1 48.26, -10.54 54.2, -0.02 58.65 M0.49 57.08 C5.17 54.37, 10.76 50.01, 26.76 40.96 M-0.84 58.18 C7.73 53.51, 15.56 49.89, 25.72 41.56 M26.7 40.49 C27.22 34.42, 26.12 26.26, 24.73 14.63 M24.97 42.52 C25.1 34.26, 26.29 25.6, 24.86 13.95 M23.53 13.18 C18.32 12.16, 9.92 6.13, 1.2 0.78 M24.78 13.49 C20.25 10.63, 14.83 7.24, 0.75 -0.69 M0 0 C0 0, 0 0, 0 0 M0 0 C0 0, 0 0, 0 0" stroke="#000000" stroke-width="1" fill="none"></path></g></g><mask></mask><g stroke-linecap="round"><g transform="translate(162.78512857558133 242.06205874109457) rotate(0 8.132302072138089 5.620143109949112)" fill-rule="evenodd"><path d="M0.76 -0.03 L0.27 18 L-1.66 20.69 L-6.22 17.82 L-7.03 10.27 L-2.24 -8.23 L-3.46 -9.61 L-0.42 -6.42 L17.22 11.3 L16.69 -7.32 L19 -9.5 L18.81 -7.13 L19.65 19.27 L17.54 18.27 L12.62 18.85 L0.32 0.37" stroke="none" stroke-width="0" fill="#ffff" fill-rule="evenodd"></path><path d="M-0.59 -0.23 C-0.89 1.11, -0.89 4.61, -0.95 7.76 C-1.01 10.91, -0.36 17.12, -0.97 18.7 C-1.57 20.28, -3.92 19.58, -4.57 17.25 C-5.21 14.91, -4.97 8.6, -4.81 4.7 C-4.65 0.79, -4.43 -4.14, -3.6 -6.17 C-2.77 -8.19, -2.03 -8.82, 0.17 -7.46 C2.36 -6.1, 6.97 -1.12, 9.56 1.98 C12.14 5.07, 14.34 12.49, 15.69 11.1 C17.04 9.71, 16.99 -3.33, 17.65 -6.37 C18.31 -9.42, 18.83 -9.12, 19.62 -7.18 C20.41 -5.23, 22.1 1.05, 22.38 5.31 C22.66 9.57, 22.83 16.16, 21.3 18.37 C19.77 20.57, 15.88 20.17, 13.18 18.53 C10.48 16.88, 7.14 11.68, 5.11 8.5 C3.07 5.32, 1.77 0.71, 0.95 -0.56 M1.3 -1.39 C1.28 0.09, 1.15 5.79, 1.19 8.78 C1.23 11.78, 2.45 15.04, 1.53 16.58 C0.61 18.12, -3.08 19.92, -4.33 18.04 C-5.59 16.17, -5.78 9.53, -6 5.34 C-6.22 1.15, -6.7 -5.28, -5.65 -7.08 C-4.6 -8.89, -2.16 -6.94, 0.31 -5.52 C2.77 -4.09, 6.88 -1.07, 9.16 1.46 C11.44 3.99, 12.97 11.08, 13.99 9.66 C15.01 8.25, 14.4 -4.34, 15.29 -7.03 C16.18 -9.72, 18.32 -8.55, 19.33 -6.49 C20.35 -4.44, 20.93 1.2, 21.37 5.3 C21.8 9.4, 22.91 15.88, 21.94 18.09 C20.97 20.3, 18.41 20.29, 15.55 18.56 C12.7 16.84, 7.59 10.76, 4.81 7.74 C2.02 4.71, -0.22 1.94, -1.17 0.39" stroke="#000000" stroke-width="1" fill="none"></path></g></g><mask></mask><g stroke-linecap="round"><g transform="translate(428.00612491617505 111.75348178507875) rotate(0 -0.6211968759438378 29.572480415682065)" fill-rule="evenodd"><path d="M-1.42 0.25 L-27.35 16.24 L-27.37 44.31 L0.9 60.14 L26.96 44.13 L25.11 12.94 L-0.15 -1.86" stroke="none" stroke-width="0" fill="#40c057" fill-rule="evenodd"></path><path d="M1.8 -1.72 C-10.34 5.5, -19.21 10.03, -26.7 14.65 M0.84 -0.24 C-9.3 4.36, -16.77 9.1, -26.62 15.97 M-25.64 15.68 C-25.63 22.12, -27.51 28.36, -24.74 45.4 M-26.25 15.13 C-26.59 23.86, -26.09 31.46, -25.16 43.76 M-27.4 45.33 C-15.06 48, -8.36 55.47, -0.29 60.39 M-26.48 42.69 C-15.22 49.8, -7 56.12, -0.66 59.87 M-1.75 60.87 C7.14 54.54, 12.44 52.13, 25.66 40.53 M0.05 58.34 C8.05 53.4, 16.3 49.57, 25.58 43.17 M26.09 40.38 C25.44 33.85, 26.45 27.11, 23.87 13.8 M25.64 42.84 C26.03 33.44, 24.78 27.22, 26.15 13.14 M24.71 15.03 C21.22 10.38, 12 5.81, 1.33 -1.2 M25.48 14.57 C18.55 10.31, 10.52 5.77, -0.1 -0.44 M0 0 C0 0, 0 0, 0 0 M0 0 C0 0, 0 0, 0 0" stroke="#000000" stroke-width="1" fill="none"></path></g></g><mask></mask><g stroke-linecap="round"><g transform="translate(419.41045073212683 134.82214069725762) rotate(0 7.792727753977147 6.2840970484577525)" fill-rule="evenodd"><path d="M-1.15 0.73 L-0.35 17.26 L-0.42 19.71 L-3.19 17.47 L-5.98 10.39 L-2.3 -4.96 L-3.2 -9.31 L1.53 -7.17 L17.06 12.83 L15.84 -4.91 L17.99 -9.98 L22.68 -5.77 L18.83 19.03 L16.25 20.71 L12.75 16.31 L0.83 -1.88" stroke="none" stroke-width="0" fill="#ffff" fill-rule="evenodd"></path><path d="M-1.03 -0.9 C-0.94 0.23, 0.27 4.71, 0.4 7.84 C0.53 10.98, 0.58 16.2, -0.28 17.93 C-1.14 19.66, -3.9 20.55, -4.76 18.21 C-5.62 15.87, -5.73 8.05, -5.43 3.9 C-5.13 -0.25, -3.93 -4.8, -2.96 -6.69 C-2 -8.57, -1.63 -8.75, 0.37 -7.41 C2.37 -6.07, 6.57 -1.94, 9.03 1.35 C11.49 4.64, 14.02 13.52, 15.14 12.34 C16.26 11.15, 14.66 -2.64, 15.74 -5.74 C16.82 -8.85, 20.56 -8.06, 21.6 -6.31 C22.64 -4.55, 22.12 0.99, 22 4.79 C21.89 8.58, 22.13 14.11, 20.89 16.47 C19.65 18.83, 16.79 20.2, 14.54 18.93 C12.28 17.66, 9.7 11.81, 7.35 8.85 C5 5.89, 1.71 2.62, 0.46 1.17 M0.63 1.24 C0.6 3.01, -0.13 5.94, -0.41 8.91 C-0.7 11.88, -0.38 17.3, -1.09 19.06 C-1.79 20.83, -3.66 22, -4.63 19.51 C-5.61 17.02, -6.93 8.68, -6.94 4.12 C-6.95 -0.44, -5.94 -6.28, -4.68 -7.88 C-3.42 -9.47, -1.56 -6.84, 0.62 -5.44 C2.79 -4.04, 5.65 -2.32, 8.35 0.51 C11.05 3.35, 15.53 12.65, 16.81 11.55 C18.09 10.45, 15.12 -3.28, 16.04 -6.07 C16.97 -8.86, 21.56 -6.93, 22.35 -5.17 C23.14 -3.41, 20.97 0.5, 20.8 4.5 C20.63 8.5, 22.46 16.41, 21.32 18.85 C20.18 21.29, 16.75 20.93, 13.96 19.17 C11.17 17.41, 6.6 11.56, 4.57 8.26 C2.53 4.96, 2.74 0.59, 1.74 -0.63" stroke="#000000" stroke-width="1" fill="none"></path></g></g><mask></mask></svg>